<svg width="34" height="34" viewBox="0 0 34 34" fill="none" xmlns="http://www.w3.org/2000/svg">
<rect width="34" height="34" rx="4" fill="#FFF0F5"/>
<path d="M16.9998 14V18M16.9998 22H17.0098M15.6151 8.89171L7.39019 23.0983C6.93398 23.8863 6.70588 24.2803 6.73959 24.6037C6.769 24.8857 6.91677 25.142 7.14613 25.3088C7.40908 25.5 7.86435 25.5 8.77487 25.5H25.2246C26.1352 25.5 26.5904 25.5 26.8534 25.3088C27.0827 25.142 27.2305 24.8857 27.2599 24.6037C27.2936 24.2803 27.0655 23.8863 26.6093 23.0983L18.3844 8.89171C17.9299 8.10654 17.7026 7.71396 17.4061 7.58211C17.1474 7.4671 16.8521 7.4671 16.5935 7.58211C16.2969 7.71396 16.0696 8.10655 15.6151 8.89171Z" stroke="#EF7C99" stroke-width="2" stroke-linecap="round" stroke-linejoin="round"/>
</svg>
